<svg width="24" height="24" viewBox="0 0 24 24" fill="none" xmlns="http://www.w3.org/2000/svg">
<path fill-rule="evenodd" clip-rule="evenodd" d="M18.2978 5.68315C17.9189 5.75055 17.3817 5.92686 16.5215 6.21358L10.0305 8.37724C9.20315 8.65304 8.61939 8.84795 8.19948 9.01179C7.99181 9.09282 7.84718 9.15754 7.74661 9.2106C7.66142 9.25554 7.6308 9.2803 7.62898 9.28156C7.22312 9.67446 7.22312 10.3255 7.62898 10.7184C7.6308 10.7197 7.66142 10.7444 7.74661 10.7894C7.84718 10.8424 7.99181 10.9072 8.19948 10.9882C8.61939 11.152 9.20315 11.3469 10.0305 11.6227C10.0495 11.6291 10.0684 11.6353 10.0871 11.6415C10.3604 11.7325 10.6004 11.8123 10.8214 11.9292C11.3539 12.2108 11.7893 12.6461 12.0709 13.1786C12.1877 13.3996 12.2676 13.6396 12.3585 13.913C12.3647 13.9317 12.371 13.9505 12.3773 13.9695C12.6531 14.7969 12.848 15.3806 13.0118 15.8005C13.0929 16.0082 13.1576 16.1528 13.2106 16.2534C13.2556 16.3386 13.2803 16.3692 13.2816 16.371C13.6745 16.7769 14.3256 16.7769 14.7185 16.371C14.7197 16.3692 14.7445 16.3386 14.7894 16.2534C14.8425 16.1528 14.9072 16.0082 14.9882 15.8005C15.1521 15.3806 15.347 14.7969 15.6228 13.9695L17.7864 7.4785C18.0732 6.61832 18.2495 6.0811 18.3169 5.70219C18.3183 5.6943 18.3196 5.68663 18.3209 5.67916C18.3134 5.68042 18.3057 5.68175 18.2978 5.68315ZM18.5568 5.66004C18.5566 5.66022 18.5533 5.65995 18.5475 5.65868C18.5541 5.65922 18.557 5.65985 18.5568 5.66004ZM18.3413 5.45245C18.3401 5.44671 18.3398 5.44343 18.34 5.44322C18.3402 5.44302 18.3408 5.44588 18.3413 5.45245ZM17.9475 3.71406C18.4985 3.61605 19.253 3.58686 19.8331 4.16691C20.4132 4.74697 20.384 5.50148 20.286 6.05247C20.1896 6.5939 19.9632 7.27302 19.7077 8.03931L19.6838 8.11095L17.5201 14.6019L17.5107 14.6301C17.2465 15.423 17.0358 16.0549 16.8514 16.5275C16.6781 16.9717 16.4726 17.4321 16.1632 17.7541C14.9827 18.9825 13.0174 18.9825 11.8369 17.7541C11.5274 17.4321 11.3219 16.9717 11.1486 16.5275C10.9643 16.055 10.7536 15.423 10.4894 14.6303L10.4799 14.6019C10.3595 14.2407 10.3324 14.1694 10.3029 14.1136C10.209 13.9361 10.0639 13.791 9.8864 13.6971C9.83058 13.6676 9.75929 13.6405 9.39809 13.5201L9.36976 13.5107C8.57697 13.2464 7.94506 13.0358 7.47252 12.8514C7.02833 12.6781 6.56797 12.4726 6.24592 12.1631C5.01747 10.9826 5.01747 9.01733 6.24592 7.83686C6.56797 7.52738 7.02833 7.32189 7.47252 7.14859C7.94508 6.96421 8.57702 6.75356 9.36984 6.48929L9.39809 6.47988L15.8891 4.31622C15.913 4.30823 15.9369 4.30027 15.9607 4.29234C16.727 4.03683 17.4061 3.81038 17.9475 3.71406Z" fill="#33363F"/>
</svg>
