<svg width="33" height="25" viewBox="0 0 33 25" fill="none" xmlns="http://www.w3.org/2000/svg">
<path d="M22.9022 5.40525L23.8964 5.29755L23.8964 5.29755L22.9022 5.40525ZM22.7161 4.49585L23.5797 3.9917L23.5797 3.9917L22.7161 4.49585ZM23.25 6.96035L24.0056 6.30524L24.0056 6.30524L23.25 6.96035ZM24.046 7.30442L24.0056 6.30524L24.0056 6.30524L24.046 7.30442ZM25.4171 6.49237L26.0198 7.29035L26.0485 7.26865L26.0756 7.24494L25.4171 6.49237ZM25.4171 6.49236L24.8144 5.69438L24.7857 5.71608L24.7586 5.73979L25.4171 6.49236ZM25.5828 6.36723L26.1854 7.16522L26.1854 7.16522L25.5828 6.36723ZM26.4834 5.8299L26.6473 6.81637L26.6473 6.81637L26.4834 5.8299ZM26.9076 5.85082L27.1678 4.88527L27.1678 4.88527L26.9076 5.85082ZM27.751 6.47418L27.0727 7.20898L27.0727 7.20898L27.751 6.47418ZM28.7203 7.36898L29.3986 6.63418L29.3986 6.63417L28.7203 7.36898ZM29.2714 7.9653L30.1654 7.51738L30.1654 7.51738L29.2714 7.9653ZM29.3117 8.76953L30.246 9.12582L30.246 9.12582L29.3117 8.76953ZM28.823 9.41796L29.5714 10.0813L29.5714 10.0813L28.823 9.41796ZM27.9841 10.5585L27.0065 10.3479L27.0065 10.3479L27.9841 10.5585ZM28.3928 11.5916L27.824 12.4141L27.824 12.4141L28.3928 11.5916ZM29.785 11.8494L29.6931 12.8452L29.6931 12.8452L29.785 11.8494ZM29.9908 11.8684L30.0827 10.8726L30.0827 10.8726L29.9908 11.8684ZM30.908 12.041L30.4167 12.9119L30.4167 12.9119L30.908 12.041ZM31.3291 12.5027L30.4167 12.9119L30.4167 12.9119L31.3291 12.5027ZM31.3291 15.4972L30.4167 15.0881L30.4167 15.0881L31.3291 15.4972ZM30.9079 15.9591L30.4167 15.0881L30.4167 15.0881L30.9079 15.9591ZM29.9909 16.1316L29.899 15.1358L29.899 15.1358L29.9909 16.1316ZM29.7851 16.1506L29.877 17.1464L29.877 17.1464L29.7851 16.1506ZM28.3934 16.4082L28.9621 17.2308L28.9621 17.2308L28.3934 16.4082ZM27.9845 17.4417L28.9621 17.2308L28.9621 17.2308L27.9845 17.4417ZM28.8232 18.5817L28.0748 19.245L28.0748 19.245L28.8232 18.5817ZM29.3117 19.2299L30.246 18.8735L30.246 18.8735L29.3117 19.2299ZM29.2713 20.0344L28.3773 19.5863L28.3773 19.5863L29.2713 20.0344ZM28.7205 20.6305L29.3988 21.3653L29.3988 21.3653L28.7205 20.6305ZM27.751 21.5254L27.0727 20.7906L27.0727 20.7906L27.751 21.5254ZM26.9076 22.1487L27.1678 23.1143L27.1678 23.1143L26.9076 22.1487ZM26.4835 22.1697L26.3195 23.1561L26.3195 23.1561L26.4835 22.1697ZM25.5828 21.6323L26.1855 20.8343L26.1855 20.8343L25.5828 21.6323ZM25.4174 21.5074L24.8147 22.3054L24.8147 22.3054L25.4174 21.5074ZM24.0459 20.6951L24.0861 19.6959L24.0861 19.6959L24.0459 20.6951ZM23.2502 21.0391L24.0056 21.6943L24.0056 21.6943L23.2502 21.0391ZM22.9023 22.5946L21.9081 22.4869L21.9081 22.4869L22.9023 22.5946ZM22.716 23.5043L21.8525 23L21.8525 23L22.716 23.5043ZM22.2608 23.9128L21.8525 23L21.8525 23L22.2608 23.9128ZM18.906 23.9129L18.4978 24.8258L18.4978 24.8258L18.906 23.9129ZM18.4506 23.5042L17.587 24.0083L17.587 24.0083L18.4506 23.5042ZM18.2644 22.5947L17.2702 22.7024L17.2702 22.7024L18.2644 22.5947ZM17.9166 21.0396L17.1611 21.6947L17.1611 21.6947L17.9166 21.0396ZM17.1207 20.6955L17.0803 19.6963L17.0803 19.6963L17.1207 20.6955ZM15.7496 21.5076L16.3522 22.3056L16.3522 22.3056L15.7496 21.5076ZM15.5838 21.6328L14.9812 20.8348L14.9812 20.8348L15.5838 21.6328ZM14.6831 22.1701L14.8471 23.1566L14.8471 23.1566L14.6831 22.1701ZM14.259 22.1492L14.5192 21.1836L14.5192 21.1836L14.259 22.1492ZM13.4156 21.5258L14.0939 20.791L14.0939 20.791L13.4156 21.5258ZM12.4463 20.631L13.1245 19.8962L13.1245 19.8962L12.4463 20.631ZM11.8952 20.0347L11.0012 20.4826L11.8952 20.0347ZM11.8549 19.2305L12.7893 19.5868L12.7893 19.5868L11.8549 19.2305ZM12.3436 18.582L13.0919 19.2454L13.0919 19.2454L12.3436 18.582ZM13.1825 17.4415L12.2049 17.2309L12.2049 17.2309L13.1825 17.4415ZM12.7738 16.4084L12.2049 17.2309L12.2049 17.2309L12.7738 16.4084ZM11.3816 16.1506L11.2896 17.1464L11.2896 17.1464L11.3816 16.1506ZM11.1758 16.1316L11.2678 15.1358L11.2678 15.1358L11.1758 16.1316ZM10.2587 15.959L10.75 15.0881L10.75 15.0881L10.2587 15.959ZM9.83755 15.4972L8.9251 15.9064L8.9251 15.9064L9.83755 15.4972ZM9.83759 12.5027L8.92519 12.0934L8.92519 12.0934L9.83759 12.5027ZM10.2586 12.041L10.75 12.9119L10.75 12.9119L10.2586 12.041ZM11.176 11.8684L11.2679 12.8641L11.2679 12.8641L11.176 11.8684ZM11.3816 11.8494L11.2897 10.8536L11.2897 10.8536L11.3816 11.8494ZM12.7743 11.5914L13.3433 12.4138L13.3433 12.4138L12.7743 11.5914ZM13.183 10.5587L12.2053 10.7691L12.2053 10.7691L13.183 10.5587ZM12.3437 9.41764L11.5331 10.0031L11.5623 10.0436L11.5954 10.081L12.3437 9.41764ZM12.3437 9.41764L13.1544 8.83215L13.1252 8.79168L13.0921 8.75433L12.3437 9.41764ZM11.8549 8.76894L12.7893 8.41278L12.7893 8.41278L11.8549 8.76894ZM11.8952 7.96498L11.0011 7.51719L11.0011 7.51719L11.8952 7.96498ZM12.4464 7.3684L13.1247 8.1032L13.1394 8.08964L13.1535 8.07551L12.4464 7.3684ZM12.4464 7.3684L11.7682 6.63359L11.7535 6.64715L11.7393 6.66129L12.4464 7.3684ZM13.4157 6.47374L14.0939 7.20855L14.0939 7.20855L13.4157 6.47374ZM14.2591 5.85036L13.9989 4.8848L13.9989 4.8848L14.2591 5.85036ZM14.6832 5.82944L14.8471 4.84296L14.8471 4.84296L14.6832 5.82944ZM15.5839 6.3668L14.9812 7.16478L14.9812 7.16478L15.5839 6.3668ZM15.7498 6.49213L15.1472 7.29011L15.1706 7.30785L15.1951 7.32418L15.7498 6.49213ZM15.7498 6.49213L16.3525 5.69414L16.329 5.67641L16.3045 5.66008L15.7498 6.49213ZM17.1205 7.30402L17.1611 6.30484L17.1611 6.30484L17.1205 7.30402ZM17.9168 6.95983L18.6724 7.61482L18.6724 7.61482L17.9168 6.95983ZM18.2644 5.40512L19.2586 5.51282L19.2644 5.45913V5.40512H18.2644ZM18.2644 5.40511L17.2703 5.29741L17.2644 5.3511V5.40511H18.2644ZM18.4505 4.49594L17.5868 3.99188L17.5868 3.99189L18.4505 4.49594ZM18.9061 4.08707L18.498 3.17413L18.498 3.17413L18.9061 4.08707ZM22.2607 4.08711L22.6689 3.17422L22.6689 3.17422L22.2607 4.08711ZM23.8964 5.29755C23.8718 5.07065 23.8482 4.84606 23.8133 4.65699C23.7763 4.45642 23.7152 4.22381 23.5797 3.9917L21.8525 5C21.8246 4.95218 21.8304 4.93256 21.8465 5.01977C21.8647 5.11848 21.8803 5.25645 21.9081 5.51296L23.8964 5.29755ZM24.0056 6.30524C24.078 6.3887 24.056 6.4316 24.0159 6.22938C23.9771 6.03348 23.9461 5.75592 23.8964 5.29755L21.9081 5.51296C21.9536 5.93374 21.9941 6.31553 22.0541 6.6183C22.1129 6.91475 22.2172 7.29562 22.4945 7.61545L24.0056 6.30524ZM24.0056 6.30524L24.0056 6.30524L22.4945 7.61545C22.8929 8.07494 23.4788 8.32819 24.0864 8.3036L24.0056 6.30524ZM24.8144 5.69438C24.4465 5.97224 24.2231 6.13982 24.0538 6.24574C23.879 6.35509 23.8952 6.3097 24.0056 6.30524L24.0864 8.3036C24.5094 8.28649 24.8583 8.10155 25.1145 7.94126C25.3762 7.77755 25.682 7.54543 26.0198 7.29035L24.8144 5.69438ZM24.7586 5.73979L24.7586 5.73979L26.0756 7.24494L26.0756 7.24494L24.7586 5.73979ZM24.9801 5.56924L24.8144 5.69438L26.0198 7.29035L26.1854 7.16522L24.9801 5.56924ZM26.3195 4.84343C26.0168 4.89373 25.7732 5.01808 25.575 5.14245C25.3899 5.25864 25.1857 5.41399 24.9801 5.56924L26.1854 7.16522C26.4186 6.98912 26.5434 6.89596 26.6383 6.8364C26.7202 6.78501 26.7075 6.80637 26.6473 6.81637L26.3195 4.84343ZM27.1678 4.88527C26.8913 4.81075 26.602 4.79648 26.3195 4.84343L26.6473 6.81637L26.6473 6.81637L27.1678 4.88527ZM28.4292 5.73937C28.2399 5.56464 28.052 5.38994 27.8792 5.2561C27.6943 5.11284 27.4641 4.96512 27.1678 4.88527L26.6473 6.81637C26.5884 6.80049 26.578 6.778 26.6544 6.83719C26.743 6.9058 26.858 7.01079 27.0727 7.20898L28.4292 5.73937ZM29.3986 6.63417L28.4292 5.73937L27.0727 7.20898L28.042 8.10378L29.3986 6.63417ZM30.1654 7.51738C30.0614 7.30976 29.9267 7.15028 29.8057 7.02359C29.6904 6.90292 29.5458 6.77004 29.3986 6.63418L28.042 8.10378C28.2077 8.25672 28.2977 8.34044 28.3594 8.40495C28.4152 8.46344 28.3996 8.45772 28.3773 8.41323L30.1654 7.51738ZM30.246 9.12582C30.4458 8.60206 30.4165 8.01854 30.1654 7.51738L28.3773 8.41323L28.3773 8.41323L30.246 9.12582ZM29.5714 10.0813C29.7042 9.93137 29.8348 9.78469 29.9375 9.6531C30.0452 9.51495 30.1633 9.3428 30.246 9.12582L28.3773 8.41323C28.395 8.36673 28.41 8.35948 28.3603 8.42326C28.3054 8.49362 28.2242 8.58591 28.0747 8.75465L29.5714 10.0813ZM28.9617 10.7691C28.9405 10.8672 28.9037 10.8758 29.022 10.7215C29.1326 10.5771 29.2999 10.3875 29.5714 10.0813L28.0747 8.75465C27.8236 9.03787 27.5991 9.29027 27.4347 9.50476C27.2779 9.70926 27.0829 9.99337 27.0065 10.3479L28.9617 10.7691ZM28.9617 10.7691L28.9617 10.7691L27.0065 10.3479C26.8362 11.1386 27.1588 11.954 27.824 12.4141L28.9617 10.7691ZM29.8769 10.8536C29.4695 10.816 29.2177 10.7922 29.0383 10.7626C28.8464 10.731 28.8791 10.712 28.9617 10.7691L27.824 12.4141C28.1223 12.6203 28.4589 12.6941 28.7131 12.736C28.9798 12.7799 29.3163 12.8104 29.6931 12.8452L29.8769 10.8536ZM30.0827 10.8726L29.8769 10.8536L29.6931 12.8452L29.8989 12.8641L30.0827 10.8726ZM31.3994 11.17C31.1643 11.0374 30.9297 10.9799 30.728 10.9459C30.5376 10.914 30.3115 10.8937 30.0827 10.8726L29.8989 12.8641C30.1573 12.888 30.2967 12.9015 30.3965 12.9183C30.485 12.9332 30.4653 12.9394 30.4167 12.9119L31.3994 11.17ZM32.2415 12.0935C32.0667 11.7036 31.7715 11.38 31.3994 11.17L30.4167 12.9119L30.4167 12.9119L32.2415 12.0935ZM32.4167 13.4319C32.4167 13.2022 32.4173 12.9752 32.403 12.7827C32.3877 12.5787 32.352 12.3398 32.2415 12.0935L30.4167 12.9119C30.3938 12.861 30.4018 12.842 30.4085 12.9314C30.416 13.0324 30.4167 13.1724 30.4167 13.4319H32.4167ZM32.4167 14.5682V13.4319H30.4167V14.5682H32.4167ZM32.2416 15.9063C32.352 15.6601 32.3877 15.4212 32.403 15.2173C32.4173 15.0248 32.4167 14.7979 32.4167 14.5682H30.4167C30.4167 14.8277 30.416 14.9677 30.4085 15.0686C30.4018 15.158 30.3938 15.139 30.4167 15.0881L32.2416 15.9063ZM31.3992 16.8301C31.7715 16.6201 32.0668 16.2963 32.2416 15.9063L30.4167 15.0881L30.4167 15.0881L31.3992 16.8301ZM30.0828 17.1274C30.3116 17.1063 30.5376 17.086 30.7279 17.0541C30.9296 17.0202 31.1642 16.9626 31.3992 16.8301L30.4167 15.0881C30.4653 15.0606 30.485 15.0668 30.3965 15.0817C30.2967 15.0985 30.1574 15.112 29.899 15.1358L30.0828 17.1274ZM29.877 17.1464L30.0828 17.1274L29.899 15.1358L29.6932 15.1548L29.877 17.1464ZM28.9621 17.2308C28.8795 17.2879 28.8469 17.269 29.0387 17.2374C29.218 17.2078 29.4697 17.184 29.877 17.1464L29.6932 15.1548C29.3165 15.1896 28.9801 15.22 28.7136 15.264C28.4594 15.3058 28.123 15.3795 27.8248 15.5857L28.9621 17.2308ZM28.9621 17.2308L28.9621 17.2308L27.8248 15.5857C27.1592 16.0458 26.8364 16.8616 27.007 17.6525L28.9621 17.2308ZM29.5715 17.9184C29.3002 17.6123 29.133 17.4227 29.0224 17.2785C28.9041 17.1242 28.9409 17.1328 28.9621 17.2308L27.007 17.6525C27.0834 18.0068 27.2784 18.2908 27.4351 18.4952C27.5994 18.7096 27.8239 18.9619 28.0748 19.245L29.5715 17.9184ZM30.246 18.8735C30.1632 18.6566 30.0452 18.4845 29.9375 18.3464C29.8349 18.2149 29.7043 18.0683 29.5715 17.9184L28.0748 19.245C28.2243 19.4137 28.3055 19.506 28.3603 19.5763C28.41 19.6401 28.3951 19.6328 28.3773 19.5863L30.246 18.8735ZM30.1653 20.4824C30.4166 19.9811 30.4458 19.3974 30.246 18.8735L28.3773 19.5863L28.3773 19.5863L30.1653 20.4824ZM29.3988 21.3653C29.5459 21.2295 29.6905 21.0966 29.8057 20.976C29.9267 20.8494 30.0613 20.69 30.1653 20.4824L28.3773 19.5863C28.3996 19.5419 28.4153 19.5361 28.3594 19.5946C28.2978 19.6591 28.2078 19.7428 28.0422 19.8957L29.3988 21.3653ZM28.4293 22.2602L29.3988 21.3653L28.0422 19.8957L27.0727 20.7906L28.4293 22.2602ZM27.1678 23.1143C27.4641 23.0344 27.6943 22.8867 27.8792 22.7435C28.052 22.6096 28.24 22.4349 28.4293 22.2602L27.0727 20.7906C26.858 20.9888 26.743 21.0938 26.6544 21.1624C26.578 21.2216 26.5885 21.1991 26.6474 21.1832L27.1678 23.1143ZM26.3195 23.1561C26.602 23.2031 26.8913 23.1888 27.1678 23.1143L26.6474 21.1832L26.6474 21.1832L26.3195 23.1561ZM24.9801 22.4303C25.1857 22.5856 25.39 22.7409 25.5751 22.8571C25.7732 22.9815 26.0168 23.1058 26.3195 23.1561L26.6474 21.1832C26.7076 21.1932 26.7202 21.2145 26.6383 21.1632C26.5434 21.1036 26.4187 21.0104 26.1855 20.8343L24.9801 22.4303ZM24.8147 22.3054L24.9801 22.4303L26.1855 20.8343L26.02 20.7094L24.8147 22.3054ZM24.0056 21.6943C23.8952 21.6899 23.879 21.6445 24.0538 21.7538C24.2232 21.8598 24.4467 22.0274 24.8147 22.3054L26.02 20.7094C25.6822 20.4542 25.3763 20.222 25.1145 20.0583C24.8583 19.898 24.5092 19.713 24.0861 19.6959L24.0056 21.6943ZM24.0056 21.6943L24.0056 21.6943L24.0861 19.6959C23.4787 19.6715 22.8931 19.9246 22.4948 20.3838L24.0056 21.6943ZM23.8964 22.7023C23.9461 22.2438 23.9771 21.9662 24.016 21.7702C24.0561 21.5679 24.078 21.6109 24.0056 21.6943L22.4948 20.3838C22.2173 20.7037 22.1129 21.0847 22.0542 21.3812C21.9941 21.6841 21.9537 22.066 21.9081 22.4869L23.8964 22.7023ZM23.5796 24.0085C23.7152 23.7763 23.7763 23.5437 23.8133 23.343C23.8482 23.1539 23.8718 22.9293 23.8964 22.7023L21.9081 22.4869C21.8803 22.7435 21.8647 22.8815 21.8465 22.9802C21.8304 23.0675 21.8246 23.0478 21.8525 23L23.5796 24.0085ZM22.6691 24.8257C23.0505 24.6551 23.3689 24.3693 23.5796 24.0085L21.8525 23L21.8525 23L22.6691 24.8257ZM21.3364 25C21.5647 25 21.7906 25.0006 21.9823 24.9863C22.1858 24.9711 22.4237 24.9355 22.6691 24.8257L21.8525 23C21.903 22.9774 21.9219 22.9853 21.8335 22.9919C21.7333 22.9994 21.5945 23 21.3364 23V25ZM19.8302 25H21.3364V23H19.8302V25ZM18.4978 24.8258C18.7431 24.9355 18.981 24.9712 19.1844 24.9863C19.3761 25.0006 19.6019 25 19.8302 25V23C19.5721 23 19.4333 22.9994 19.3332 22.9919C19.2448 22.9853 19.2636 22.9774 19.3142 23L18.4978 24.8258ZM17.587 24.0083C17.7977 24.3693 18.1162 24.6552 18.4978 24.8258L19.3142 23L19.3142 23L17.587 24.0083ZM17.2702 22.7024C17.2948 22.9293 17.3185 23.1539 17.3534 23.343C17.3904 23.5436 17.4515 23.7762 17.587 24.0083L19.3142 23C19.3421 23.0478 19.3363 23.0674 19.3202 22.9802C19.302 22.8815 19.2864 22.7435 19.2586 22.487L17.2702 22.7024ZM17.1611 21.6947C17.0887 21.6113 17.1107 21.5683 17.1507 21.7706C17.1896 21.9665 17.2206 22.2441 17.2702 22.7024L19.2586 22.487C19.213 22.0662 19.1726 21.6844 19.1126 21.3816C19.0538 21.0852 18.9495 20.7043 18.6721 20.3845L17.1611 21.6947ZM17.1611 21.6947L17.1611 21.6947L18.6721 20.3845C18.2737 19.925 17.6879 19.6718 17.0803 19.6963L17.1611 21.6947ZM16.3522 22.3056C16.7201 22.0277 16.9436 21.8601 17.1129 21.7542C17.2877 21.6449 17.2715 21.6903 17.1611 21.6947L17.0803 19.6963C16.6573 19.7135 16.3083 19.8984 16.0521 20.0587C15.7904 20.2224 15.4846 20.4545 15.1469 20.7096L16.3522 22.3056ZM16.1865 22.4308L16.3522 22.3056L15.1469 20.7096L14.9812 20.8348L16.1865 22.4308ZM14.8471 23.1566C15.1498 23.1063 15.3934 22.9819 15.5915 22.8576C15.7767 22.7414 15.9809 22.586 16.1865 22.4307L14.9812 20.8348C14.748 21.0109 14.6232 21.104 14.5283 21.1636C14.4464 21.215 14.4591 21.1936 14.5192 21.1836L14.8471 23.1566ZM13.9988 23.1148C14.2753 23.1893 14.5646 23.2035 14.8471 23.1566L14.5192 21.1836L14.5192 21.1836L13.9988 23.1148ZM12.7373 22.2606C12.9266 22.4354 13.1146 22.6101 13.2874 22.7439C13.4723 22.8872 13.7025 23.0349 13.9988 23.1148L14.5192 21.1836C14.5781 21.1995 14.5886 21.222 14.5122 21.1628C14.4236 21.0942 14.3086 20.9892 14.0939 20.791L12.7373 22.2606ZM11.768 21.3658L12.7373 22.2606L14.0939 20.791L13.1245 19.8962L11.768 21.3658ZM11.0012 20.4826C11.1052 20.6902 11.2399 20.8497 11.3609 20.9764C11.4762 21.0971 11.6208 21.23 11.768 21.3658L13.1245 19.8962C12.9589 19.7433 12.8688 19.6596 12.8072 19.5951C12.7514 19.5366 12.767 19.5423 12.7893 19.5868L11.0012 20.4826ZM10.9205 18.8742C10.7208 19.3979 10.7501 19.9815 11.0012 20.4826L12.7893 19.5868L12.7893 19.5868L10.9205 18.8742ZM11.5952 17.9187C11.4624 18.0686 11.3317 18.2153 11.2291 18.3469C11.1214 18.4851 11.0033 18.6572 10.9205 18.8742L12.7893 19.5868C12.7716 19.6333 12.7566 19.6405 12.8063 19.5767C12.8612 19.5064 12.9424 19.4141 13.0919 19.2454L11.5952 17.9187ZM12.2049 17.2309C12.2261 17.1327 12.2629 17.1242 12.1446 17.2785C12.034 17.4228 11.8666 17.6125 11.5952 17.9187L13.0919 19.2454C13.343 18.9621 13.5675 18.7097 13.7319 18.4952C13.8887 18.2907 14.0837 18.0066 14.1601 17.6521L12.2049 17.2309ZM12.2049 17.2309L12.2049 17.2309L14.1601 17.6521C14.3304 16.8614 14.0078 16.046 13.3426 15.5859L12.2049 17.2309ZM11.2896 17.1464C11.6971 17.184 11.9489 17.2078 12.1283 17.2374C12.3202 17.269 12.2875 17.2879 12.2049 17.2309L13.3426 15.5859C13.0443 15.3797 12.7077 15.3059 12.4534 15.264C12.1868 15.2201 11.8503 15.1896 11.4735 15.1548L11.2896 17.1464ZM11.0839 17.1274L11.2896 17.1464L11.4735 15.1548L11.2678 15.1358L11.0839 17.1274ZM9.76734 16.83C10.0024 16.9626 10.237 17.0202 10.4387 17.0541C10.6291 17.086 10.8552 17.1063 11.0839 17.1274L11.2678 15.1358C11.0093 15.112 10.87 15.0985 10.7702 15.0817C10.6817 15.0668 10.7013 15.0606 10.75 15.0881L9.76734 16.83ZM8.9251 15.9064C9.09997 16.2964 9.39514 16.62 9.76734 16.83L10.75 15.0881L10.75 15.0881L8.9251 15.9064ZM8.75 14.5681C8.75 14.7978 8.74935 15.0248 8.76371 15.2173C8.77893 15.4213 8.81469 15.6602 8.9251 15.9064L10.75 15.0881C10.7729 15.139 10.7648 15.158 10.7582 15.0686C10.7506 14.9676 10.75 14.8276 10.75 14.5681H8.75ZM8.75 13.432V14.5681H10.75V13.432H8.75ZM8.92519 12.0934C8.81472 12.3396 8.77894 12.5786 8.76372 12.7826C8.74935 12.9752 8.75 13.2022 8.75 13.432H10.75C10.75 13.1724 10.7506 13.0324 10.7582 12.9314C10.7649 12.842 10.7729 12.8609 10.75 12.9119L8.92519 12.0934ZM9.76716 11.1701C9.3951 11.38 9.10004 11.7036 8.92519 12.0934L10.75 12.9119L10.75 12.9119L9.76716 11.1701ZM11.0841 10.8726C10.8552 10.8937 10.6291 10.914 10.4387 10.946C10.2369 10.9799 10.0022 11.0375 9.76716 11.1701L10.75 12.9119C10.7013 12.9394 10.6817 12.9332 10.7702 12.9183C10.87 12.9015 11.0094 12.888 11.2679 12.8641L11.0841 10.8726ZM11.2897 10.8536L11.0841 10.8726L11.2679 12.8641L11.4735 12.8452L11.2897 10.8536ZM12.2053 10.7691C12.2879 10.712 12.3206 10.7309 12.1287 10.7626C11.9492 10.7921 11.6973 10.816 11.2897 10.8536L11.4735 12.8452C11.8505 12.8104 12.1871 12.7799 12.4539 12.7359C12.7082 12.694 13.045 12.6202 13.3433 12.4138L12.2053 10.7691ZM12.2053 10.7691L12.2053 10.7691L13.3433 12.4138C14.0082 11.9538 14.3307 11.1387 14.1606 10.3483L12.2053 10.7691ZM11.5954 10.081C11.8669 10.3873 12.0343 10.577 12.145 10.7214C12.2633 10.8758 12.2265 10.8673 12.2053 10.7691L14.1606 10.3483C14.0842 9.99358 13.8891 9.70935 13.7323 9.50476C13.5679 9.29018 13.3432 9.03767 13.0921 8.75434L11.5954 10.081ZM11.5331 10.0031L11.5331 10.0031L13.1544 8.83215L13.1544 8.83215L11.5331 10.0031ZM10.9205 9.12509C11.0032 9.34217 11.1214 9.5144 11.2292 9.65261C11.3318 9.78425 11.4625 9.93099 11.5954 10.0809L13.0921 8.75433C12.9425 8.58552 12.8612 8.49319 12.8064 8.42281C12.7566 8.359 12.7716 8.36626 12.7893 8.41278L10.9205 9.12509ZM11.0011 7.51719C10.7502 8.0182 10.7209 8.6015 10.9205 9.12509L12.7893 8.41278L12.7893 8.41278L11.0011 7.51719ZM11.7682 6.6336C11.6209 6.76951 11.4762 6.90246 11.3609 7.02317C11.2399 7.14992 11.1051 7.30947 11.0011 7.51719L12.7893 8.41278C12.7671 8.45729 12.7514 8.46301 12.8073 8.4045C12.8689 8.33995 12.959 8.25621 13.1247 8.1032L11.7682 6.6336ZM11.7393 6.66129L11.7393 6.66129L13.1535 8.07551L13.1535 8.0755L11.7393 6.66129ZM12.7374 5.73894L11.7682 6.63359L13.1247 8.1032L14.0939 7.20855L12.7374 5.73894ZM13.9989 4.8848C13.7026 4.96465 13.4724 5.11237 13.2874 5.25564C13.1147 5.38949 12.9267 5.5642 12.7374 5.73894L14.0939 7.20855C14.3086 7.01035 14.4237 6.90535 14.5122 6.83674C14.5887 6.77754 14.5782 6.80004 14.5193 6.81591L13.9989 4.8848ZM14.8471 4.84296C14.5646 4.79603 14.2754 4.8103 13.9989 4.8848L14.5193 6.81591L14.5193 6.81591L14.8471 4.84296ZM16.1866 5.56881C15.981 5.41355 15.7767 5.25819 15.5916 5.14199C15.3934 5.01762 15.1498 4.89327 14.8471 4.84296L14.5193 6.81591C14.4591 6.80591 14.4465 6.78456 14.5283 6.83595C14.6232 6.89551 14.748 6.98868 14.9812 7.16478L16.1866 5.56881ZM16.3525 5.69414L16.1866 5.56881L14.9812 7.16478L15.1472 7.29011L16.3525 5.69414ZM16.3045 5.66008L16.3045 5.66008L15.1951 7.32418L15.1951 7.32418L16.3045 5.66008ZM17.1611 6.30484C17.2715 6.30932 17.2877 6.35469 17.1129 6.24537C16.9437 6.13947 16.7203 5.97193 16.3525 5.69414L15.1472 7.29012C15.4848 7.54513 15.7905 7.77719 16.0521 7.94086C16.3083 8.10111 16.6571 8.28602 17.08 8.30319L17.1611 6.30484ZM17.1611 6.30484L17.1611 6.30484L17.08 8.30319C17.6878 8.32788 18.2739 8.07454 18.6724 7.61482L17.1611 6.30484ZM17.2703 5.29742C17.2206 5.75566 17.1896 6.03316 17.1508 6.229C17.1107 6.43118 17.0888 6.38829 17.1611 6.30484L18.6724 7.61482C18.9496 7.29503 19.0539 6.91425 19.1126 6.61788C19.1726 6.31519 19.2131 5.93349 19.2586 5.51282L17.2703 5.29742ZM17.2644 5.40511V5.40512H19.2644V5.40511H17.2644ZM17.5868 3.99189C17.4514 4.22396 17.3904 4.45651 17.3534 4.65702C17.3185 4.84604 17.2948 5.07057 17.2703 5.29741L19.2586 5.51282C19.2864 5.25638 19.302 5.11845 19.3202 5.01977C19.3363 4.93258 19.3421 4.95218 19.3142 5L17.5868 3.99189ZM18.498 3.17413C18.1162 3.34477 17.7976 3.63076 17.5868 3.99188L19.3142 5L19.3142 5L18.498 3.17413ZM19.83 3C19.6018 3 19.3761 2.99935 19.1844 3.01365C18.9811 3.02882 18.7433 3.06447 18.498 3.17413L19.3142 5C19.2636 5.02259 19.2448 5.01471 19.3332 5.00811C19.4333 5.00065 19.5721 5 19.83 5V3ZM21.3365 3H19.83V5H21.3365V3ZM22.6689 3.17422C22.4235 3.0645 22.1857 3.02884 21.9823 3.01366C21.7906 2.99935 21.5648 3 21.3365 3V5C21.5945 5 21.7334 5.00065 21.8335 5.00812C21.9219 5.01472 21.903 5.0226 21.8525 5L22.6689 3.17422ZM23.5797 3.9917C23.369 3.63072 23.0505 3.34484 22.6689 3.17422L21.8525 5L21.8525 5L23.5797 3.9917ZM23.9167 14C23.9167 15.583 22.5012 17 20.5833 17V19C23.452 19 25.9167 16.8353 25.9167 14H23.9167ZM20.5833 11C22.5012 11 23.9167 12.417 23.9167 14H25.9167C25.9167 11.1647 23.452 9 20.5833 9V11ZM17.25 14C17.25 12.417 18.6655 11 20.5833 11V9C17.7147 9 15.25 11.1647 15.25 14H17.25ZM20.5833 17C18.6655 17 17.25 15.583 17.25 14H15.25C15.25 16.8353 17.7147 19 20.5833 19V17Z" fill="#33363F"/>
</svg>
